:version 1.10
:name ASF
:units
  mass 1
  length 1
  angle deg
:documentation
  ASF file generated by Kaydara
:root
  axis xyz
  order  tx ty tz rx ry rz
  position 0 0 0
  orientation 0 0 0
:bonedata
  begin
    id 1
    name lfemurDummy
    direction 0.61522 -0.761478 0.204097
    length 5.68318
    axis 0 -0 0 xyz
  end
  begin
    id 2
    name lfemur
    direction 0.34202 -0.939693 -5.84747e-008
    length 16.9147
    axis 0 -0 20 xyz
    dof rx ry rz
    limits( -inf , inf )
( -inf , inf )
( -inf , inf )

  end
  begin
    id 3
    name ltibia
    direction 0.34202 -0.939693 1.20839e-009
    length 18.0532
    axis 0 -0 20 xyz
    dof rz ry rx
    limits( -inf , inf )
( -inf , inf )
( -inf , inf )

  end
  begin
    id 4
    name lfoot
    direction 0.0841971 -0.23133 0.969225
    length 5.23822
    axis -90 7.62852e-016 20 xyz
    dof ry rx rz
    limits( -inf , inf )
( -inf , inf )
( -inf , inf )

  end
  begin
    id 5
    name ltoes
    direction 0 0 0
    length 0
    axis 0 0 0 xyz
    dof rz ry rx
    limits( -inf , inf )
( -inf , inf )
( -inf , inf )

  end
  begin
    id 6
    name rfemurDummy
    direction -0.625247 -0.75382 0.202044
    length 5.74091
    axis 0 -0 0 xyz
  end
  begin
    id 7
    name rfemur
    direction -0.34202 -0.939693 -1.47013e-008
    length 16.4922
    axis 0 -0 -20 xyz
    dof rx ry rz
    limits( -inf , inf )
( -inf , inf )
( -inf , inf )

  end
  begin
    id 8
    name rtibia
    direction -0.34202 -0.939693 -7.74345e-010
    length 18.2421
    axis 0 -0 -20 xyz
    dof rz ry rx
    limits( -inf , inf )
( -inf , inf )
( -inf , inf )

  end
  begin
    id 9
    name rfoot
    direction -0.124331 -0.341598 0.931586
    length 5.45787
    axis -90 -7.62852e-016 -20 xyz
    dof ry rx rz
    limits( -inf , inf )
( -inf , inf )
( -inf , inf )

  end
  begin
    id 10
    name rtoes
    direction 0 0 0
    length 0
    axis 0 0 0 xyz
    dof rz ry rx
    limits( -inf , inf )
( -inf , inf )
( -inf , inf )

  end
  begin
    id 11
    name lowerbackDummy
    direction 0 0 0
    length 0
    axis 0 -0 0 xyz
  end
  begin
    id 12
    name lowerback
    direction -0.0218484 0.994884 -0.0986304
    length 4.45607
    axis 0 -0 0 xyz
    dof rx ry rz
    limits( -inf , inf )
( -inf , inf )
( -inf , inf )

  end
  begin
    id 13
    name upperback
    direction -0.00973057 0.999717 -0.0217111
    length 4.47449
    axis 0 -0 0 xyz
    dof rx ry rz
    limits( -inf , inf )
( -inf , inf )
( -inf , inf )

  end
  begin
    id 14
    name thorax
    direction -0.000928171 0.999699 0.0245198
    length 4.50973
    axis 0 -0 0 xyz
    dof rx ry rz
    limits( -inf , inf )
( -inf , inf )
( -inf , inf )

  end
  begin
    id 15
    name rclavicle
    direction -0.9009 0.425937 -0.0834055
    length 7.28587
    axis 0 -0 0 xyz
    dof rx ry rz
    limits( -inf , inf )
( -inf , inf )
( -inf , inf )

  end
  begin
    id 16
    name rhumerus
    direction -1 -2.23604e-007 -1.42637e-007
    length 13.5704
    axis 180 30 90 xyz
    dof rx ry rz
    limits( -inf , inf )
( -inf , inf )
( -inf , inf )

  end
  begin
    id 17
    name rradius
    direction -1 5.68281e-008 -4.4952e-007
    length 8.06782
    axis 180 30 90 xyz
    dof rz ry rx
    limits( -inf , inf )
( -inf , inf )
( -inf , inf )

  end
  begin
    id 18
    name rwrist
    direction -1 1.51393e-007 1.38143e-007
    length 4.03391
    axis -90 -90 0 xyz
    dof rz rx ry
    limits( -inf , inf )
( -inf , inf )
( -inf , inf )

  end
  begin
    id 19
    name rthumb
    direction 0 0 0
    length 0
    axis 0 0 0 xyz
    dof ry rx rz
    limits( -inf , inf )
( -inf , inf )
( -inf , inf )

  end
  begin
    id 20
    name rhand
    direction -1 -3.34077e-007 -5.59631e-007
    length 1.29744
    axis -90 -90 0 xyz
    dof ry rx rz
    limits( -inf , inf )
( -inf , inf )
( -inf , inf )

  end
  begin
    id 21
    name rfingers
    direction 0 0 0
    length 0
    axis 0 0 0 xyz
    dof rz ry rx
    limits( -inf , inf )
( -inf , inf )
( -inf , inf )

  end
  begin
    id 22
    name lclavicle
    direction 0.940017 0.332249 -0.0773232
    length 8.29589
    axis 0 -0 0 xyz
    dof rx ry rz
    limits( -inf , inf )
( -inf , inf )
( -inf , inf )

  end
  begin
    id 23
    name lhumerus
    direction 1 7.41158e-008 -1.44768e-008
    length 12.0042
    axis 180 -30 -90 xyz
    dof rx ry rz
    limits( -inf , inf )
( -inf , inf )
( -inf , inf )

  end
  begin
    id 24
    name lradius
    direction 1 -1.32972e-007 3.10821e-007
    length 8.1902
    axis 180 -30 -90 xyz
    dof rz ry rx
    limits( -inf , inf )
( -inf , inf )
( -inf , inf )

  end
  begin
    id 25
    name lwrist
    direction 1 3.08957e-007 4.01394e-007
    length 4.09509
    axis -90 90 0 xyz
    dof rz rx ry
    limits( -inf , inf )
( -inf , inf )
( -inf , inf )

  end
  begin
    id 26
    name lthumb
    direction 0 0 0
    length 0
    axis 0 0 0 xyz
    dof ry rx rz
    limits( -inf , inf )
( -inf , inf )
( -inf , inf )

  end
  begin
    id 27
    name lhand
    direction 1 -1.64125e-007 -6.99514e-007
    length 1.37229
    axis -90 90 0 xyz
    dof ry rx rz
    limits( -inf , inf )
( -inf , inf )
( -inf , inf )

  end
  begin
    id 28
    name lfingers
    direction 0 0 0
    length 0
    axis 0 0 0 xyz
    dof rz ry rx
    limits( -inf , inf )
( -inf , inf )
( -inf , inf )

  end
  begin
    id 29
    name lowerneck
    direction -0.030798 0.998024 0.0547665
    length 3.93918
    axis 0 -0 0 xyz
    dof rx ry rz
    limits( -inf , inf )
( -inf , inf )
( -inf , inf )

  end
  begin
    id 30
    name upperneck
    direction 0.0531588 0.996611 -0.0627736
    length 3.95491
    axis 0 -0 0 xyz
    dof rx ry rz
    limits( -inf , inf )
( -inf , inf )
( -inf , inf )

  end
  begin
    id 31
    name head
    direction 0 0 0
    length 0
    axis 0 0 0 xyz
    dof rx ry rz
    limits( -inf , inf )
( -inf , inf )
( -inf , inf )

  end
:hierarchy
  begin
    root lfemurDummy rfemurDummy lowerbackDummy
    lfemurDummy lfemur
    lfemur ltibia
    ltibia lfoot
    lfoot ltoes
    rfemurDummy rfemur
    rfemur rtibia
    rtibia rfoot
    rfoot rtoes
    lowerbackDummy lowerback
    lowerback upperback
    upperback thorax
    thorax rclavicle lclavicle lowerneck
    rclavicle rhumerus
    rhumerus rradius
    rradius rwrist
    rwrist rthumb rhand
    rhand rfingers
    lclavicle lhumerus
    lhumerus lradius
    lradius lwrist
    lwrist lthumb lhand
    lhand lfingers
    lowerneck upperneck
    upperneck head
  end

:SAMPLES-PER-SECOND 30
:FULLY-SPECIFIED
:DEGREES
92
root  4.382577656 40.53755633 -0.3092755483 -15.01800537 -47.68499756 9.841003418
lowerback  7.024779797 1.233870029 -0.5143060088
upperback  2.390350103 1.609210014 1.618119955
thorax  -1.532259941 0.7866680026 1.822000027
lowerneck  -10.99489975 5.145750046 -1.302880049
upperneck  16.14170074 6.183179855 5.875219822
head  6.481840134 3.383409977 2.62293005
lclavicle  0 -9.442270133e-015 7.951389973e-016
lhumerus  3.909420013 -21.52770042 80.40969849
lradius  2.726152869e-031 -2.244311603e-031 140.5370026
lwrist  -3.531125038e-031 -0 0.9850389957
lhand  -1.496451383e-031 -27.76390076 20.11240005
lfingers  90 7.125020027 -90
lthumb  89.89689403 5.08795885 91.16245106
rclavicle  0 -9.442270133e-015 7.951389973e-016
rhumerus  11.11450005 30.36050034 -79.96549988
rradius  -2.554930589e-031 2.437452301e-031 136.3480072
rwrist  1.412450015e-030 -1.765562519e-031 -9.920060158
rhand  -7.920061211e-032 -33.2840004 9.303460121
rfingers  -90 -7.125020027 -90
rthumb  -92.93752616 -24.25625642 -97.11982154
rfemur  -11.22399998 21.03070068 14.6548996
rtibia  -0 0 59.78609848
rfoot  -4.474556938e-032 -9.444350243 5.504119873
rtoes  5.373923086 19.29304026 -105.8922705
lfemur  -16.65870094 -0.7540090084 -21.82259941
ltibia  -0 0 47.58089828
lfoot  4.452354882e-032 -7.535220146 2.043580055
ltoes  -4.250644065 -19.5611806 -102.515957
93
root  4.365422407 40.32044298 -0.2938466748 -15.46697998 -47.86599731 10.12402344
lowerback  7.210330009 1.24398005 -0.7196440101
upperback  2.427520037 1.607130051 1.598520041
thorax  -1.601780057 0.7851960063 1.914139986
lowerneck  -11.00500011 5.166130066 -1.483610034
upperneck  16.03619957 6.257050037 5.829559803
head  6.441979885 3.404949903 2.640379906
lclavicle  0 -9.442270133e-015 7.951389973e-016
lhumerus  3.090159893 -21.61809921 80.63899994
lradius  2.731706653e-031 -2.237548391e-031 140.6790009
lwrist  0 -0 0.7444379926
lhand  -1.496451383e-031 -27.76390076 20.11240005
lfingers  90 7.125020027 -90
lthumb  89.89689403 5.08795885 91.16245106
rclavicle  0 -9.442270133e-015 7.951389973e-016
rhumerus  11.37209988 30.43919945 -79.94000244
rradius  -2.556844094e-031 2.435444994e-031 136.3930054
rwrist  0 -1.765562519e-031 -9.965990067
rhand  -7.920061211e-032 -33.2840004 9.303460121
rfingers  -90 -7.125020027 -90
rthumb  -92.93752616 -24.25625642 -97.11982154
rfemur  -10.22350025 20.78479958 15.07870007
rtibia  -0 0 59.68579865
rfoot  -4.504783733e-032 -11.52820015 6.344820023
rtoes  5.373923086 19.29304026 -105.8922705
lfemur  -16.86720085 -0.926075995 -21.71120071
ltibia  -0 0 47.94390106
lfoot  4.46188967e-032 -8.410340309 1.341969967
ltoes  -4.250644065 -19.5611806 -102.515957
94
root  4.342289046 40.1095563 -0.2775200005 -15.77801514 -48.0019989 10.28497314
lowerback  7.427269936 1.258370042 -0.9361749887
upperback  2.37154007 1.611989975 1.630669951
thorax  -1.786720037 0.7890490294 2.063740015
lowerneck  -10.78509998 5.18983984 -1.608350039
upperneck  15.79310036 6.347909927 5.669410229
head  6.323919773 3.426490068 2.601690054
lclavicle  0 -9.442270133e-015 7.951389973e-016
lhumerus  2.098320007 -21.86440086 80.98339844
lradius  2.737905355e-031 -2.229959261e-031 140.8379974
lwrist  -1.412450015e-030 -0 0.7392129898
lhand  -1.496451383e-031 -27.76390076 20.11240005
lfingers  90 7.125020027 -90
lthumb  89.89689403 5.08795885 91.16245106
rclavicle  0 -9.442270133e-015 7.951389973e-016
rhumerus  11.48910046 30.5685997 -79.96150208
rradius  -2.556503555e-031 2.435802458e-031 136.3849945
rwrist  7.062250077e-031 -0 -10.12699986
rhand  -7.920061211e-032 -33.2840004 9.303460121
rfingers  -90 -7.125020027 -90
rthumb  -92.93752616 -24.25625642 -97.11982154
rfemur  -9.190739632 20.52000046 15.56190014
rtibia  -0 0 59.39360046
rfoot  -4.577233256e-032 -15.35200024 5.090889931
rtoes  5.373923086 19.29304026 -105.8922705
lfemur  -17.0991993 -0.8250120282 -21.50709915
ltibia  -0 0 48.56930161
lfoot  4.473542614e-032 -9.365929604 0.4092890024
ltoes  -4.250644065 -19.5611806 -102.515957
95
root  4.311888988 39.90200073 -0.2611377812 -15.83197021 -48.10299683 10.2130127
lowerback  7.465410233 1.26098001 -0.9770259857
upperback  2.344259977 1.613540053 1.665109992
thorax  -1.838150024 0.7903959751 2.121079922
lowerneck  -10.62639999 5.209969997 -1.714059949
upperneck  15.54249954 6.428629875 5.514560223
head  6.215439796 3.445869923 2.562880039
lclavicle  0 -9.442270133e-015 7.951389973e-016
lhumerus  1.155599952 -21.96380043 81.2507019
lradius  2.744936216e-031 -2.221298991e-031 141.0189972
lwrist  -3.531125038e-031 -3.531125038e-031 0.787710011
lhand  -1.496451383e-031 -27.76390076 20.11240005
lfingers  90 7.125020027 -90
lthumb  89.89689403 5.08795885 91.16245106
rclavicle  0 -9.442270133e-015 7.951389973e-016
rhumerus  11.60389996 30.73660088 -80.07360077
rradius  -2.559860057e-031 2.432274763e-031 136.4640045
rwrist  7.062250077e-031 -1.765562519e-031 -10.35649967
rhand  -7.920061211e-032 -33.2840004 9.303460121
rfingers  -90 -7.125020027 -90
rthumb  -92.93752616 -24.25625642 -97.11982154
rfemur  -8.237179756 20.16329956 16.13299942
rtibia  -0 0 58.94910049
rfoot  -5.217222688e-032 -17.8654995 0.4683600068
rtoes  5.373923086 19.29304026 -105.8922705
lfemur  -17.36750031 -0.523006022 -21.14109993
ltibia  -0 0 49.40029907
lfoot  5.044562117e-032 -10.14799976 -0.7402660251
ltoes  -4.250644065 -19.5611806 -102.515957
96
root  4.281600066 39.70266628 -0.251075555 -15.67700195 -48.21899414 9.968017578
lowerback  7.436759949 1.273769975 -0.857945025
upperback  2.330539942 1.640059948 1.69283998
thorax  -1.83513999 0.8036239743 2.080709934
lowerneck  -10.54380035 5.202109814 -1.726359963
upperneck  15.30179977 6.473800182 5.240039825
head  6.132830143 3.444869995 2.471999884
lclavicle  0 -9.442270133e-015 7.951389973e-016
lhumerus  0.2884050012 -21.96030045 81.57779694
lradius  2.747493515e-031 -2.218135122e-031 141.0850067
lwrist  -7.062250077e-031 -0 0.7920460105
lhand  -1.496451383e-031 -27.76390076 20.11240005
lfingers  90 7.125020027 -90
lthumb  89.89689403 5.08795885 91.16245106
rclavicle  0 -9.442270133e-015 7.951389973e-016
rhumerus  11.42879963 31.01930046 -80.27980042
rradius  -2.574501115e-031 2.416772237e-031 136.8099976
rwrist  7.062250077e-031 1.765562519e-031 -10.20189953
rhand  -7.920061211e-032 -33.2840004 9.303460121
rfingers  -90 -7.125020027 -90
rthumb  -92.93752616 -24.25625642 -97.11982154
rfemur  -7.404669762 19.71529961 16.73469925
rtibia  -0 0 58.35319901
rfoot  -4.699142274e-032 -20.06559944 -0.7056090236
rtoes  5.373923086 19.29304026 -105.8922705
lfemur  -17.74810028 -0.03786849976 -20.64669991
ltibia  -0 0 50.37189865
lfoot  6.734006862e-032 -10.51799965 -2.073220015
ltoes  -4.250644065 -19.5611806 -102.515957
97
root  4.250133319 39.54355435 -0.2418311093 -15.51098633 -48.39300537 9.630981445
lowerback  7.630750179 1.322409987 -0.6988790035
upperback  2.228070021 1.720110059 1.78410995
thorax  -2.050100088 0.8454020023 2.072920084
lowerneck  -10.29109955 5.204490185 -1.953850031
upperneck  15.05609989 6.53801012 5.14151001
head  6.004519939 3.454260111 2.466209888
lclavicle  0 -9.442270133e-015 7.951389973e-016
lhumerus  -0.7974240184 -21.94709969 82.17379761
lradius  2.749930368e-031 -2.215113317e-031 141.147995
lwrist  -7.062250077e-031 -0 0.8137570024
lhand  -1.496451383e-031 -27.76390076 20.11240005
lfingers  90 7.125020027 -90
lthumb  89.89689403 5.08795885 91.16245106
rclavicle  0 -9.442270133e-015 7.951389973e-016
rhumerus  11.02880001 31.30979919 -80.40850067
rradius  -2.588084396e-031 2.402220472e-031 137.1329956
rwrist  7.062250077e-031 1.765562519e-031 -9.967630386
rhand  -7.920061211e-032 -33.2840004 9.303460121
rfingers  -90 -7.125020027 -90
rthumb  -92.93752616 -24.25625642 -97.11982154
rfemur  -6.494520187 19.28350067 17.38529968
rtibia  -0 0 57.60480118
rfoot  -5.959813365e-032 -22.21610069 -0.9809160233
rtoes  5.373923086 19.29304026 -105.8922705
lfemur  -18.11639977 0.5997650027 -20.09679985
ltibia  -0 0 51.38370132
lfoot  4.494955095e-032 -10.89690018 -3.352329969
ltoes  -4.250644065 -19.5611806 -102.515957
98
root  4.225666692 39.41888884 -0.2287888855 -15.29797363 -48.56199646 9.163024902
lowerback  7.907869816 1.362730026 -0.3836619854
upperback  2.17008996 1.800969958 1.862020016
thorax  -2.259979963 0.8859069943 1.961770058
lowerneck  -10.05109978 5.228590012 -2.199280024
upperneck  14.7027998 6.617609978 5.154550076
head  5.83946991 3.479939938 2.496589899
lclavicle  0 -9.442270133e-015 7.951389973e-016
lhumerus  -1.915779948 -22.08979988 82.86380005
lradius  2.752673155e-031 -2.21170399e-031 141.2189941
lwrist  -1.059337512e-030 -0 0.509765029
lhand  -1.496451383e-031 -27.76390076 20.11240005
lfingers  90 7.125020027 -90
lthumb  89.89689403 5.08795885 91.16245106
rclavicle  0 -9.442270133e-015 7.951389973e-016
rhumerus  10.76019955 31.52659988 -80.4763031
rradius  -2.595911372e-031 2.39376026e-031 137.3200073
rwrist  7.062250077e-031 -0 -9.598270416
rhand  -7.920061211e-032 -33.2840004 9.303460121
rfingers  -90 -7.125020027 -90
rthumb  -92.93752616 -24.25625642 -97.11982154
rfemur  -5.566659927 18.84760094 18.05940056
rtibia  -0 0 56.75329971
rfoot  -4.835613341e-032 -24.1060009 -1.878819942
rtoes  5.373923086 19.29304026 -105.8922705
lfemur  -18.42630005 1.349889994 -19.47109985
ltibia  -0 0 52.3083992
lfoot  4.501850294e-032 -11.34370041 -4.452529907
ltoes  -4.250644065 -19.5611806 -102.515957
99
root  4.204044567 39.30044399 -0.2183391119 -15 -48.91600037 8.62701416
lowerback  8.11727047 1.469799995 0.03289400041
upperback  2.173110008 1.978350043 1.916479945
thorax  -2.367619991 0.9724789858 1.761389971
lowerneck  -9.930239677 5.253250122 -2.216340065
upperneck  14.31809998 6.682219982 5.034110069
head  5.699530125 3.50187993 2.45114994
lclavicle  0 -9.442270133e-015 7.951389973e-016
lhumerus  -2.970870018 -22.55920029 83.51999664
lradius  2.7546023e-031 -2.20930084e-031 141.2689972
lwrist  -1.059337512e-030 -3.531125038e-031 -0.4273110032
lhand  -1.496451383e-031 -27.76390076 20.11240005
lfingers  90 7.125020027 -90
lthumb  89.89689403 5.08795885 91.16245106
rclavicle  0 -9.442270133e-015 7.951389973e-016
rhumerus  10.45100021 31.72520065 -80.58940125
rradius  -2.602335608e-031 2.38677469e-031 137.473999
rwrist  1.412450015e-030 -0 -8.910650253
rhand  -7.920061211e-032 -33.2840004 9.303460121
rfingers  -90 -7.125020027 -90
rthumb  -92.93752616 -24.25625642 -97.11982154
rfemur  -4.775650024 18.69669914 18.73660088
rtibia  -0 0 55.88539886
rfoot  -4.892061657e-032 -25.54339981 -3.301340103
rtoes  5.373923086 19.29304026 -105.8922705
lfemur  -18.69129944 2.420360088 -18.75209999
ltibia  -0 0 53.10929871
lfoot  4.50567443e-032 -11.58360004 -5.413599968
ltoes  -4.250644065 -19.5611806 -102.515957
